<?xml version="1.0" standalone="no"?>
<!DOCTYPE svg PUBLIC "-//W3C//DTD SVG 1.0//EN" "http://www.w3.org/TR/2001/REC-SVG-20010904/DTD/svg10.dtd">
<svg xmlns="http://www.w3.org/2000/svg" xmlns:xlink="http://www.w3.org/1999/xlink" id="body_1" width="40" height="60">

<g transform="matrix(0.02 0 0 0.02 0 0)">
	<g transform="matrix(1 0 0 1 0 1947.6)">
		<g transform="matrix(3.1027 0 0 3.1027 -120.34 -2025.4)">
			<g transform="matrix(-0.93803 0.34656 0.34656 0.93803 378.23 -148.51)">
				<g>
                    <path d="M125.5 683.36L272 683.36L272 991.36L125.5 991.36z" stroke="none" fill="#006680" fill-rule="nonzero" />
                    <path transform="matrix(-0.81572 -0 -0 -1 526.44 1796)"  d="M487 801.36L399.68 852.76996L312.37 904.18994L311.5 802.8599L310.63 701.5399L398.82 751.4499L487 801.36z" stroke="none" fill="#006680" fill-rule="nonzero" />
				</g>
				<g transform="matrix(-1 -0 0 1 396.27 0.46248)">
                    <path d="M125.5 683.36L272 683.36L272 991.36L125.5 991.36z" stroke="none" fill="#006680" fill-rule="nonzero" />
                    <path transform="matrix(-0.81572 -0 -0 -1 526.44 1796)"  d="M487 801.36L399.68 852.76996L312.37 904.18994L311.5 802.8599L310.63 701.5399L398.82 751.4499L487 801.36z" stroke="none" fill="#006680" fill-rule="nonzero" />
				</g>
			</g>
            <path d="M509.19 600.89C 510.33472 601.0104 629.87 919.74 629.87 919.74" stroke="#E6E6E6" stroke-width="4.0142" stroke-dasharray="12.04254,12.04254" fill="none" />
            <path d="M392.16 645.53C 393.2825 645.6497 510.5 962.53 510.5 962.53" stroke="#E6E6E6" stroke-width="3.9634" stroke-dasharray="11.89012,11.89012" fill="none" />
		</g>
		<g transform="matrix(3.2787 0 0 3.1027 -187.33 -2025.4)">
			<g transform="matrix(0.93803 0.34656 -0.34656 0.93803 362.41 -149.57)">
				<g>
                    <path d="M125.5 683.36L272 683.36L272 991.36L125.5 991.36z" stroke="none" fill="#006680" fill-rule="nonzero" />
                    <path transform="matrix(-0.81572 -0 -0 -1 526.44 1796)"  d="M487 801.36L399.68 852.76996L312.37 904.18994L311.5 802.8599L310.63 701.5399L398.82 751.4499L487 801.36z" stroke="none" fill="#006680" fill-rule="nonzero" />
				</g>
				<g transform="matrix(-1 -0 0 1 396.27 0.46248)">
                    <path d="M125.5 683.36L272 683.36L272 991.36L125.5 991.36z" stroke="none" fill="#006680" fill-rule="nonzero" />
                    <path transform="matrix(-0.81572 -0 -0 -1 526.44 1796)"  d="M487 801.36L399.68 852.76996L312.37 904.18994L311.5 802.8599L310.63 701.5399L398.82 751.4499L487 801.36z" stroke="none" fill="#006680" fill-rule="nonzero" />
				</g>
			</g>
            <path d="M230.48 602.21C 229.3389 602.3302 110.17999 920.51 110.17999 920.51" stroke="#E6E6E6" stroke-width="4.0042" stroke-dasharray="12.01255,12.01255" fill="none" />
            <path d="M346.55 649.48C 345.45828 649.5974 231.44998 960.57996 231.44998 960.57996" stroke="#E6E6E6" stroke-width="3.8721" stroke-dasharray="11.61631,11.61631" fill="none" />
		</g>
		<g transform="matrix(3.1027 0 0 3.1027 -120.34 -1761.7)">
            <path transform="matrix(1.3227 0 0 1.3301 -219.46 -163.74)"  d="M649 321.86C 649 434.8 557.442 526.36 444.5 526.36C 331.55798 526.36 240 434.802 240 321.86C 240 208.91797 331.55798 117.359985 444.5 117.359985C 557.442 117.359985 649 208.91798 649 321.86z" stroke="none" fill="#FF5555" fill-rule="nonzero" />
			<g transform="matrix(1 0 0 1 191 -89)">
                <path d="M85 283.36C 85 338.58798 40.005 383.36 -15.5 383.36C -71.005005 383.36 -116 338.58798 -116 283.36C -116 228.13199 -71.005005 183.35999 -15.5 183.35999C 40.005005 183.35999 85 228.13199 85 283.36z" stroke="none" fill="#FF5555" fill-rule="nonzero" />
			</g>
			<g transform="matrix(1 0 0 1 187.5 39)">
                <path d="M85 283.36C 85 338.58798 40.005 383.36 -15.5 383.36C -71.005005 383.36 -116 338.58798 -116 283.36C -116 228.13199 -71.005005 183.35999 -15.5 183.35999C 40.005005 183.35999 85 228.13199 85 283.36z" stroke="none" fill="#FF5555" fill-rule="nonzero" />
			</g>
			<g transform="matrix(1 0 0 1 268.5 -189)">
                <path d="M85 283.36C 85 338.58798 40.005 383.36 -15.5 383.36C -71.005005 383.36 -116 338.58798 -116 283.36C -116 228.13199 -71.005005 183.35999 -15.5 183.35999C 40.005005 183.35999 85 228.13199 85 283.36z" stroke="none" fill="#FF5555" fill-rule="nonzero" />
			</g>
			<g transform="matrix(1 0 0 1 388.5 -223)">
                <path d="M85 283.36C 85 338.58798 40.005 383.36 -15.5 383.36C -71.005005 383.36 -116 338.58798 -116 283.36C -116 228.13199 -71.005005 183.35999 -15.5 183.35999C 40.005005 183.35999 85 228.13199 85 283.36z" stroke="none" fill="#FF5555" fill-rule="nonzero" />
			</g>
			<g transform="matrix(1 0 0 1 506.5 -182)">
                <path d="M85 283.36C 85 338.58798 40.005 383.36 -15.5 383.36C -71.005005 383.36 -116 338.58798 -116 283.36C -116 228.13199 -71.005005 183.35999 -15.5 183.35999C 40.005005 183.35999 85 228.13199 85 283.36z" stroke="none" fill="#FF5555" fill-rule="nonzero" />
			</g>
			<g transform="matrix(1 0 0 1 578.5 -78)">
                <path d="M85 283.36C 85 338.58798 40.005 383.36 -15.5 383.36C -71.005005 383.36 -116 338.58798 -116 283.36C -116 228.13199 -71.005005 183.35999 -15.5 183.35999C 40.005005 183.35999 85 228.13199 85 283.36z" stroke="none" fill="#FF5555" fill-rule="nonzero" />
			</g>
			<g transform="matrix(1 0 0 1 576.5 47)">
                <path d="M85 283.36C 85 338.58798 40.005 383.36 -15.5 383.36C -71.005005 383.36 -116 338.58798 -116 283.36C -116 228.13199 -71.005005 183.35999 -15.5 183.35999C 40.005005 183.35999 85 228.13199 85 283.36z" stroke="none" fill="#FF5555" fill-rule="nonzero" />
			</g>
			<g transform="matrix(1 0 0 1 499.5 149)">
                <path d="M85 283.36C 85 338.58798 40.005 383.36 -15.5 383.36C -71.005005 383.36 -116 338.58798 -116 283.36C -116 228.13199 -71.005005 183.35999 -15.5 183.35999C 40.005005 183.35999 85 228.13199 85 283.36z" stroke="none" fill="#FF5555" fill-rule="nonzero" />
			</g>
			<g transform="matrix(1 0 0 1 378.5 185)">
                <path d="M85 283.36C 85 338.58798 40.005 383.36 -15.5 383.36C -71.005005 383.36 -116 338.58798 -116 283.36C -116 228.13199 -71.005005 183.35999 -15.5 183.35999C 40.005005 183.35999 85 228.13199 85 283.36z" stroke="none" fill="#FF5555" fill-rule="nonzero" />
			</g>
			<g transform="matrix(1 0 0 1 259.5 143)">
                <path d="M85 283.36C 85 338.58798 40.005 383.36 -15.5 383.36C -71.005005 383.36 -116 338.58798 -116 283.36C -116 228.13199 -71.005005 183.35999 -15.5 183.35999C 40.005005 183.35999 85 228.13199 85 283.36z" stroke="none" fill="#FF5555" fill-rule="nonzero" />
			</g>
		</g>
        <path transform="matrix(4.9913 0 0 4.9913 -678.43 -2690.5)"  d="M491 348.86C 491 431.427 424.06702 498.36 341.5 498.36C 258.93298 498.36 192 431.427 192 348.86C 192 266.29297 258.93298 199.35999 341.5 199.35999C 424.06702 199.35999 491 266.29297 491 348.86z" stroke="none" fill="#E6E6E6" fill-rule="nonzero" />
        <path transform="matrix(4.8149 0 0 4.8149 -618.19 -2632)"  d="M491 348.86C 491 431.427 424.06702 498.36 341.5 498.36C 258.93298 498.36 192 431.427 192 348.86C 192 266.29297 258.93298 199.35999 341.5 199.35999C 424.06702 199.35999 491 266.29297 491 348.86z" stroke="none" fill="#FF5555" fill-rule="nonzero" />
        <path transform="matrix(4.6074 0 0 4.6074 -547.31 -2562.7)"  d="M491 348.86C 491 431.427 424.06702 498.36 341.5 498.36C 258.93298 498.36 192 431.427 192 348.86C 192 266.29297 258.93298 199.35999 341.5 199.35999C 424.06702 199.35999 491 266.29297 491 348.86z" stroke="none" fill="#FF5555" fill-rule="nonzero" />
        <path transform="matrix(4.3065 0 0 4.3065 -444.54 -2457.7)"  d="M491 348.86C 491 431.427 424.06702 498.36 341.5 498.36C 258.93298 498.36 192 431.427 192 348.86C 192 266.29297 258.93298 199.35999 341.5 199.35999C 424.06702 199.35999 491 266.29297 491 348.86z" stroke="none" fill="#E6E6E6" fill-rule="nonzero" />
        <path transform="matrix(4.2234 0 0 4.2338 -414.64 -2432.4)"  d="M491 348.86C 491 431.427 424.06702 498.36 341.5 498.36C 258.93298 498.36 192 431.427 192 348.86C 192 266.29297 258.93298 199.35999 341.5 199.35999C 424.06702 199.35999 491 266.29297 491 348.86z" stroke="none" fill="#FF5555" fill-rule="nonzero" />
        <path d="M363.68 -1127.13C 363.68 -1216.4731 436.1069 -1288.9 525.45 -1288.9L525.45 -1288.9L1523.7101 -1288.9C 1613.0531 -1288.9 1685.48 -1216.4731 1685.48 -1127.13L1685.48 -1127.13L1685.48 -780.48004C 1685.48 -691.1369 1613.0531 -618.71 1523.7101 -618.71L1523.7101 -618.71L525.45 -618.71C 436.1069 -618.71 363.68 -691.1369 363.68 -780.48004L363.68 -780.48004L363.68 -1127.13z" stroke="none" fill="#FF5555" fill-rule="nonzero" />
        <path d="M931.48 -1636.4L1130.05 -1636.4L1130.05 -274.30005L931.48 -274.30005z" stroke="none" fill="#FF5555" fill-rule="nonzero" />
        <path transform="matrix(2.3442 0 0 2.2078 259.59 -2242.6)"  d="M349 329.36L328.861 318.564L308.551 329.034L312.5953 306.54498L296.3623 290.464L319.00232 287.36398L329.28232 266.95398L339.2293 287.52496L361.8143 290.99316L345.3233 306.81015L349 329.36z" stroke="none" fill="#E6E6E6" fill-rule="nonzero" />
        <path transform="matrix(2.3442 0 0 2.2078 256.22 -979.14)"  d="M349 329.36L328.861 318.564L308.551 329.034L312.5953 306.54498L296.3623 290.464L319.00232 287.36398L329.28232 266.95398L339.2293 287.52496L361.8143 290.99316L345.3233 306.81015L349 329.36z" stroke="none" fill="#E6E6E6" fill-rule="nonzero" />
	</g>
</g>
</svg>